<svg width="432" height="82" viewBox="0 0 432 82" fill="none" xmlns="http://www.w3.org/2000/svg">
<path fill-rule="evenodd" clip-rule="evenodd" d="M10.1747 80.6521L78.7617 80.6521V47.7753L10.2761 47.7753C10.2737 47.7753 10.2713 47.7753 10.269 47.7753C10.2666 47.7753 10.2643 47.7753 10.2619 47.7753H10.1747V47.7759C4.54657 47.857 -0.000236511 55.1854 -0.000236511 64.2137C-0.000236511 73.242 4.54657 80.5704 10.1747 80.6514V80.6521Z" fill="#65E4A3"/>
<path d="M123.621 60.7651C121.24 60.7651 119.005 60.3485 116.913 59.5154C114.839 58.6653 113.011 57.4242 111.43 55.792C109.866 54.1598 108.642 52.1621 107.758 49.7988C106.874 47.4186 106.432 44.6983 106.432 41.6379C106.432 37.6255 107.18 34.1996 108.676 31.3602C110.172 28.5039 112.221 26.3192 114.822 24.806C117.423 23.2758 120.356 22.5107 123.621 22.5107C128.143 22.5107 131.722 23.5649 134.357 25.6731C137.01 27.7643 138.803 30.7057 139.738 34.4971L133.465 35.4917C132.768 33.3155 131.629 31.5813 130.047 30.2891C128.466 28.98 126.451 28.3254 124.003 28.3254C121.538 28.2914 119.489 28.827 117.857 29.9321C116.225 31.0372 114.992 32.5929 114.159 34.5991C113.343 36.6053 112.935 38.9516 112.935 41.6379C112.935 44.3242 113.343 46.662 114.159 48.6512C114.975 50.6234 116.199 52.1621 117.831 53.2672C119.481 54.3724 121.538 54.9419 124.003 54.9759C125.856 54.9929 127.48 54.6614 128.874 53.9813C130.268 53.2842 131.408 52.2386 132.292 50.8445C133.176 49.4333 133.771 47.6736 134.077 45.5654H127.599V40.7453H140.606C140.64 41.0173 140.665 41.4169 140.682 41.9439C140.699 42.471 140.708 42.7855 140.708 42.8876C140.708 46.3559 140.019 49.4418 138.642 52.1451C137.282 54.8314 135.326 56.9397 132.776 58.4698C130.226 60 127.174 60.7651 123.621 60.7651ZM158.352 60.7651C155.563 60.7651 153.115 60.1615 151.007 58.9544C148.899 57.7472 147.249 56.0726 146.059 53.9303C144.886 51.7881 144.299 49.3228 144.299 46.5345C144.299 43.5251 144.878 40.9153 146.034 38.7051C147.19 36.4778 148.797 34.7521 150.854 33.528C152.911 32.3038 155.291 31.6918 157.995 31.6918C160.851 31.6918 163.274 32.3634 165.263 33.7065C167.269 35.0327 168.757 36.9114 169.726 39.3426C170.695 41.7739 171.061 44.6388 170.823 47.9371H164.727V45.6929C164.71 42.7005 164.183 40.5158 163.146 39.1386C162.109 37.7615 160.477 37.0729 158.25 37.0729C155.733 37.0729 153.863 37.855 152.639 39.4192C151.415 40.9663 150.803 43.2361 150.803 46.2284C150.803 49.0168 151.415 51.176 152.639 52.7062C153.863 54.2363 155.648 55.0014 157.995 55.0014C159.508 55.0014 160.808 54.6699 161.896 54.0068C163.002 53.3267 163.852 52.3491 164.447 51.074L170.516 52.9102C169.462 55.3925 167.83 57.3222 165.62 58.6994C163.427 60.0765 161.004 60.7651 158.352 60.7651ZM148.865 47.9371V43.2956H167.813V47.9371H148.865ZM192.656 60C190.837 60.34 189.052 60.4846 187.301 60.4335C185.566 60.3995 184.011 60.085 182.634 59.4899C181.256 58.8779 180.211 57.9173 179.497 56.6081C178.868 55.418 178.536 54.2023 178.502 52.9612C178.468 51.7201 178.451 50.3174 178.451 48.7532V24.806H184.572V48.3962C184.572 49.5013 184.58 50.4704 184.597 51.3035C184.631 52.1366 184.81 52.8167 185.133 53.3437C185.745 54.3639 186.723 54.9334 188.066 55.0524C189.409 55.1715 190.939 55.1034 192.656 54.8484V60ZM173.453 37.2769V32.4569H192.656V37.2769H173.453ZM198.579 60V23.2758H220.69V29.422H204.725V38.5776H217.629V44.6983H204.725V60H198.579ZM235.606 60.7906C233.566 60.7906 231.882 60.4506 230.556 59.7705C229.23 59.0904 228.176 58.2233 227.394 57.1692C226.612 56.1151 226.034 54.9929 225.66 53.8028C225.286 52.6127 225.039 51.4905 224.92 50.4364C224.818 49.3653 224.767 48.4982 224.767 47.8351V32.4569H230.99V45.7184C230.99 46.5685 231.049 47.5291 231.168 48.6002C231.287 49.6543 231.559 50.6744 231.984 51.6606C232.427 52.6297 233.073 53.4288 233.923 54.0578C234.79 54.6869 235.954 55.0014 237.417 55.0014C238.199 55.0014 238.972 54.8739 239.737 54.6189C240.502 54.3639 241.191 53.9303 241.803 53.3182C242.432 52.6892 242.934 51.8306 243.308 50.7424C243.682 49.6543 243.869 48.2772 243.869 46.611L247.516 48.1667C247.516 50.5129 247.057 52.6382 246.139 54.5424C245.237 56.4466 243.903 57.9683 242.135 59.1074C240.366 60.2295 238.19 60.7906 235.606 60.7906ZM244.608 60V51.4565H243.869V32.4569H250.041V60H244.608ZM276.256 60V46.7385C276.256 45.8714 276.197 44.9108 276.078 43.8567C275.959 42.8025 275.678 41.7909 275.236 40.8218C274.811 39.8357 274.165 39.0281 273.298 38.399C272.448 37.77 271.292 37.4554 269.83 37.4554C269.047 37.4554 268.274 37.5829 267.509 37.838C266.744 38.093 266.047 38.5351 265.418 39.1641C264.805 39.7762 264.312 40.6263 263.938 41.7144C263.564 42.7855 263.377 44.1627 263.377 45.8459L259.73 44.2902C259.73 41.9439 260.181 39.8187 261.082 37.9145C262 36.0103 263.343 34.4971 265.112 33.375C266.88 32.2358 269.056 31.6663 271.64 31.6663C273.681 31.6663 275.364 32.0063 276.69 32.6864C278.016 33.3665 279.07 34.2336 279.852 35.2877C280.634 36.3418 281.212 37.4639 281.586 38.6541C281.96 39.8442 282.198 40.9748 282.3 42.046C282.419 43.1001 282.479 43.9587 282.479 44.6217V60H276.256ZM257.155 60V32.4569H262.638V41.0003H263.377V60H257.155ZM299.729 60.7651C297.195 60.7651 294.985 60.1275 293.098 58.8524C291.211 57.5772 289.748 55.843 288.711 53.6498C287.674 51.4565 287.156 48.9827 287.156 46.2284C287.156 43.4401 287.674 40.9578 288.711 38.7816C289.765 36.5883 291.253 34.8626 293.174 33.6045C295.095 32.3294 297.357 31.6918 299.958 31.6918C302.576 31.6918 304.77 32.3294 306.538 33.6045C308.323 34.8626 309.675 36.5883 310.593 38.7816C311.511 40.9748 311.97 43.4571 311.97 46.2284C311.97 48.9657 311.511 51.4395 310.593 53.6498C309.675 55.843 308.306 57.5772 306.487 58.8524C304.668 60.1275 302.415 60.7651 299.729 60.7651ZM300.672 55.2565C302.321 55.2565 303.647 54.8824 304.651 54.1343C305.671 53.3692 306.41 52.3066 306.869 50.9465C307.345 49.5863 307.583 48.0136 307.583 46.2284C307.583 44.4262 307.345 42.8535 306.869 41.5104C306.41 40.1502 305.688 39.0961 304.702 38.348C303.715 37.5829 302.44 37.2004 300.876 37.2004C299.227 37.2004 297.867 37.6085 296.796 38.4245C295.725 39.2236 294.934 40.3118 294.424 41.6889C293.914 43.0491 293.659 44.5622 293.659 46.2284C293.659 47.9116 293.905 49.4418 294.398 50.819C294.908 52.1791 295.682 53.2587 296.719 54.0578C297.756 54.8569 299.074 55.2565 300.672 55.2565ZM307.583 60V40.6688H306.818V23.2758H313.016V60H307.583ZM330.801 60.7651C327.4 60.7651 324.637 60 322.512 58.4698C320.387 56.9397 319.095 54.7889 318.636 52.0176L324.909 51.0485C325.232 52.4086 325.947 53.4798 327.052 54.2618C328.157 55.0439 329.551 55.435 331.234 55.435C332.713 55.435 333.852 55.1459 334.652 54.5679C335.468 53.9728 335.876 53.1652 335.876 52.1451C335.876 51.516 335.723 51.0145 335.417 50.6404C335.128 50.2494 334.482 49.8753 333.478 49.5183C332.475 49.1613 330.937 48.7107 328.862 48.1667C326.55 47.5546 324.714 46.9 323.354 46.2029C321.994 45.4888 321.016 44.6473 320.421 43.6781C319.826 42.709 319.528 41.5359 319.528 40.1587C319.528 38.4415 319.979 36.9454 320.88 35.6702C321.781 34.3951 323.039 33.4175 324.654 32.7374C326.27 32.0403 328.174 31.6918 330.367 31.6918C332.509 31.6918 334.405 32.0233 336.054 32.6864C337.72 33.3495 339.064 34.2931 340.084 35.5172C341.104 36.7414 341.733 38.178 341.971 39.8272L335.697 40.9493C335.544 39.7762 335.009 38.8496 334.09 38.1695C333.189 37.4894 331.982 37.1069 330.469 37.0219C329.024 36.9369 327.859 37.1579 326.975 37.685C326.091 38.195 325.649 38.9176 325.649 39.8527C325.649 40.3798 325.828 40.8303 326.185 41.2044C326.542 41.5784 327.256 41.9524 328.327 42.3265C329.415 42.7005 331.03 43.1596 333.172 43.7036C335.366 44.2647 337.117 44.9108 338.426 45.6419C339.752 46.3559 340.704 47.2145 341.282 48.2177C341.877 49.2208 342.175 50.4364 342.175 51.8646C342.175 54.6359 341.163 56.8121 339.14 58.3933C337.134 59.9745 334.354 60.7651 330.801 60.7651Z" fill="#0A2640"/>
<path fill-rule="evenodd" clip-rule="evenodd" d="M90.0675 40.6406C95.6957 40.5596 100.243 33.2312 100.243 24.2028C100.243 15.1745 95.6957 7.84604 90.0675 7.76508V7.76481H90.0459C90.0217 7.76454 89.9975 7.7644 89.9733 7.7644C89.9491 7.7644 89.9249 7.76454 89.9007 7.76481H21.4805V40.6416H90.0675V40.6406Z" fill="#0A2640"/>
</svg>
