<svg width="344" height="50" viewBox="0 0 344 50" fill="none" xmlns="http://www.w3.org/2000/svg">
<path fill-rule="evenodd" clip-rule="evenodd" d="M11.1078 49.4003L79.6948 49.4003V29.4271L11.2085 29.4271C11.2064 29.4271 11.2042 29.4271 11.2021 29.4271C11.2 29.4271 11.1978 29.4271 11.1957 29.4271H11.1078V29.4275C5.47968 29.4768 0.932869 33.9289 0.932869 39.4137C0.932869 44.8985 5.47968 49.3506 11.1078 49.3999V49.4003Z" fill="#65E4A3"/>
<path d="M124.553 45.168C122.173 45.168 119.937 44.7515 117.846 43.9184C115.772 43.0683 113.944 41.8272 112.363 40.195C110.799 38.5628 109.575 36.5651 108.691 34.2018C107.807 31.8215 107.365 29.1012 107.365 26.0409C107.365 22.0284 108.113 18.6025 109.609 15.7632C111.105 12.9069 113.154 10.7221 115.755 9.20895C118.356 7.67878 121.289 6.91369 124.553 6.91369C129.076 6.91369 132.655 7.96781 135.29 10.076C137.943 12.1673 139.736 15.1086 140.671 18.9001L134.398 19.8947C133.701 17.7184 132.561 15.9842 130.98 14.6921C129.399 13.3829 127.384 12.7283 124.936 12.7283C122.471 12.6943 120.422 13.2299 118.79 14.335C117.158 15.4402 115.925 16.9958 115.092 19.0021C114.276 21.0083 113.868 23.3546 113.868 26.0409C113.868 28.7272 114.276 31.0649 115.092 33.0542C115.908 35.0264 117.132 36.5651 118.764 37.6702C120.414 38.7753 122.471 39.3449 124.936 39.3789C126.789 39.3959 128.413 39.0643 129.807 38.3843C131.201 37.6872 132.34 36.6416 133.224 35.2474C134.109 33.8363 134.704 32.0766 135.01 29.9683H128.532V25.1483H141.538C141.572 25.4203 141.598 25.8198 141.615 26.3469C141.632 26.874 141.64 27.1885 141.64 27.2905C141.64 30.7589 140.952 33.8448 139.575 36.5481C138.215 39.2344 136.259 41.3426 133.709 42.8728C131.159 44.403 128.107 45.168 124.553 45.168ZM159.284 45.168C156.496 45.168 154.048 44.5645 151.94 43.3573C149.831 42.1502 148.182 40.4755 146.992 38.3333C145.819 36.191 145.232 33.7257 145.232 30.9374C145.232 27.9281 145.81 25.3183 146.967 23.108C148.123 20.8808 149.729 19.1551 151.787 17.9309C153.844 16.7068 156.224 16.0947 158.927 16.0947C161.784 16.0947 164.207 16.7663 166.196 18.1095C168.202 19.4356 169.69 21.3143 170.659 23.7456C171.628 26.1769 171.993 29.0417 171.755 32.3401H165.66V30.0958C165.643 27.1035 165.116 24.9187 164.079 23.5416C163.042 22.1644 161.41 21.4758 159.182 21.4758C156.666 21.4758 154.796 22.2579 153.572 23.8221C152.348 25.3693 151.736 27.639 151.736 30.6314C151.736 33.4197 152.348 35.5789 153.572 37.1091C154.796 38.6393 156.581 39.4044 158.927 39.4044C160.441 39.4044 161.741 39.0728 162.829 38.4098C163.934 37.7297 164.785 36.7521 165.38 35.4769L171.449 37.3131C170.395 39.7954 168.763 41.7251 166.553 43.1023C164.36 44.4795 161.937 45.168 159.284 45.168ZM149.797 32.3401V27.6986H168.746V32.3401H149.797ZM193.589 44.403C191.77 44.743 189.985 44.8875 188.233 44.8365C186.499 44.8025 184.944 44.488 183.566 43.8929C182.189 43.2808 181.144 42.3202 180.43 41.0111C179.8 39.8209 179.469 38.6053 179.435 37.3642C179.401 36.123 179.384 34.7204 179.384 33.1562V9.20895H185.505V32.7991C185.505 33.9043 185.513 34.8734 185.53 35.7065C185.564 36.5396 185.743 37.2196 186.066 37.7467C186.678 38.7668 187.655 39.3364 188.999 39.4554C190.342 39.5744 191.872 39.5064 193.589 39.2514V44.403ZM174.385 21.6799V16.8598H193.589V21.6799H174.385ZM199.512 44.403V7.67878H221.623V13.825H205.658V22.9805H218.562V29.1012H205.658V44.403H199.512ZM236.539 45.1935C234.498 45.1935 232.815 44.8535 231.489 44.1734C230.163 43.4934 229.109 42.6263 228.327 41.5721C227.545 40.518 226.967 39.3959 226.593 38.2057C226.219 37.0156 225.972 35.8935 225.853 34.8394C225.751 33.7682 225.7 32.9011 225.7 32.2381V16.8598H231.923V30.1213C231.923 30.9714 231.982 31.932 232.101 33.0032C232.22 34.0573 232.492 35.0774 232.917 36.0635C233.359 37.0326 234.005 37.8317 234.856 38.4608C235.723 39.0898 236.887 39.4044 238.349 39.4044C239.132 39.4044 239.905 39.2769 240.67 39.0218C241.435 38.7668 242.124 38.3333 242.736 37.7212C243.365 37.0921 243.867 36.2335 244.241 35.1454C244.615 34.0573 244.802 32.6801 244.802 31.0139L248.449 32.5696C248.449 34.9159 247.99 37.0411 247.071 38.9453C246.17 40.8495 244.836 42.3712 243.067 43.5104C241.299 44.6325 239.123 45.1935 236.539 45.1935ZM245.541 44.403V35.8595H244.802V16.8598H250.973V44.403H245.541ZM277.189 44.403V31.1414C277.189 30.2743 277.13 29.3137 277.011 28.2596C276.892 27.2055 276.611 26.1939 276.169 25.2248C275.744 24.2387 275.098 23.4311 274.231 22.802C273.381 22.1729 272.225 21.8584 270.762 21.8584C269.98 21.8584 269.207 21.9859 268.442 22.2409C267.677 22.496 266.979 22.938 266.35 23.5671C265.738 24.1792 265.245 25.0292 264.871 26.1174C264.497 27.1885 264.31 28.5657 264.31 30.2488L260.663 28.6932C260.663 26.3469 261.114 24.2217 262.015 22.3174C262.933 20.4132 264.276 18.9001 266.044 17.7779C267.813 16.6388 269.989 16.0692 272.573 16.0692C274.613 16.0692 276.297 16.4093 277.623 17.0893C278.949 17.7694 280.003 18.6365 280.785 19.6906C281.567 20.7448 282.145 21.8669 282.519 23.057C282.893 24.2472 283.131 25.3778 283.233 26.4489C283.352 27.503 283.412 28.3616 283.412 29.0247V44.403H277.189ZM258.087 44.403V16.8598H263.571V25.4033H264.31V44.403H258.087ZM300.661 45.168C298.128 45.168 295.918 44.5305 294.031 43.2553C292.143 41.9802 290.681 40.246 289.644 38.0527C288.607 35.8595 288.088 33.3857 288.088 30.6314C288.088 27.8431 288.607 25.3608 289.644 23.1845C290.698 20.9913 292.186 19.2656 294.107 18.0074C296.028 16.7323 298.29 16.0947 300.891 16.0947C303.509 16.0947 305.702 16.7323 307.471 18.0074C309.256 19.2656 310.608 20.9913 311.526 23.1845C312.444 25.3778 312.903 27.8601 312.903 30.6314C312.903 33.3687 312.444 35.8425 311.526 38.0527C310.608 40.246 309.239 41.9802 307.42 43.2553C305.6 44.5305 303.348 45.168 300.661 45.168ZM301.605 39.6594C303.254 39.6594 304.58 39.2854 305.583 38.5373C306.604 37.7722 307.343 36.7096 307.802 35.3494C308.278 33.9893 308.516 32.4166 308.516 30.6314C308.516 28.8292 308.278 27.2565 307.802 25.9134C307.343 24.5532 306.621 23.4991 305.634 22.751C304.648 21.9859 303.373 21.6034 301.809 21.6034C300.16 21.6034 298.8 22.0114 297.729 22.8275C296.657 23.6266 295.867 24.7147 295.357 26.0919C294.847 27.452 294.592 28.9652 294.592 30.6314C294.592 32.3146 294.838 33.8448 295.331 35.2219C295.841 36.5821 296.615 37.6617 297.652 38.4608C298.689 39.2599 300.007 39.6594 301.605 39.6594ZM308.516 44.403V25.0718H307.751V7.67878H313.948V44.403H308.516ZM331.733 45.168C328.333 45.168 325.57 44.403 323.445 42.8728C321.32 41.3426 320.028 39.1919 319.569 36.4205L325.842 35.4514C326.165 36.8116 326.879 37.8827 327.985 38.6648C329.09 39.4469 330.484 39.8379 332.167 39.8379C333.646 39.8379 334.785 39.5489 335.584 38.9708C336.4 38.3758 336.809 37.5682 336.809 36.5481C336.809 35.919 336.656 35.4174 336.349 35.0434C336.06 34.6523 335.414 34.2783 334.411 33.9213C333.408 33.5642 331.869 33.1137 329.795 32.5696C327.483 31.9575 325.647 31.303 324.287 30.6059C322.926 29.8918 321.949 29.0502 321.354 28.0811C320.759 27.112 320.461 25.9389 320.461 24.5617C320.461 22.8445 320.912 21.3483 321.813 20.0732C322.714 18.798 323.972 17.8204 325.587 17.1404C327.202 16.4433 329.107 16.0947 331.3 16.0947C333.442 16.0947 335.338 16.4263 336.987 17.0893C338.653 17.7524 339.996 18.696 341.017 19.9202C342.037 21.1443 342.666 22.581 342.904 24.2302L336.63 25.3523C336.477 24.1792 335.941 23.2525 335.023 22.5725C334.122 21.8924 332.915 21.5098 331.402 21.4248C329.957 21.3398 328.792 21.5609 327.908 22.0879C327.024 22.598 326.582 23.3206 326.582 24.2557C326.582 24.7827 326.76 25.2333 327.117 25.6073C327.474 25.9814 328.189 26.3554 329.26 26.7294C330.348 27.1035 331.963 27.5625 334.105 28.1066C336.298 28.6677 338.05 29.3137 339.359 30.0448C340.685 30.7589 341.637 31.6175 342.215 32.6206C342.81 33.6237 343.108 34.8394 343.108 36.2675C343.108 39.0388 342.096 41.2151 340.073 42.7963C338.067 44.3775 335.287 45.168 331.733 45.168Z" fill="#0A2640"/>
<path fill-rule="evenodd" clip-rule="evenodd" d="M91.0003 25.093C96.6285 25.0439 101.175 20.5917 101.175 15.1068C101.175 9.62191 96.6285 5.16978 91.0003 5.12065V5.12042H90.9687C90.9479 5.1203 90.927 5.12024 90.9062 5.12024C90.8853 5.12024 90.8645 5.1203 90.8436 5.12042H22.4132V25.0936H91.0003V25.093Z" fill="#0A2640"/>
</svg>
